<?xml version="1.0" encoding="UTF-8" standalone="no"?>
<!DOCTYPE svg PUBLIC "-//W3C//DTD SVG 1.1//EN" "http://www.w3.org/Graphics/SVG/1.1/DTD/svg11.dtd">
<svg xmlns="http://www.w3.org/2000/svg" version="1.1" viewBox="30 12 552 405">
<g stroke-width="2.00" fill="none" stroke-linecap="butt">
<path stroke="#18beb5" vector-effect="non-scaling-stroke" d="
  M 403.94 86.16
  Q 400.69 87.83 399.88 89.43
  Q 397.25 94.66 394.69 99.07
  Q 392.85 102.23 389.76 106.05
  Q 385.46 111.34 384.59 112.87
  Q 380.89 119.31 376.78 124.39"
/>
<path stroke="#12b3aa" vector-effect="non-scaling-stroke" d="
  M 300.45 289.78
  L 313.21 261.26"
/>
<path stroke="#1dc6bd" vector-effect="non-scaling-stroke" d="
  M 215.95 217.78
  Q 203.86 223.81 193.01 232.14"
/>
</g>
<path fill="#23d0c8" d="
  M 403.94 86.16
  Q 400.69 87.83 399.88 89.43
  Q 397.25 94.66 394.69 99.07
  Q 392.85 102.23 389.76 106.05
  Q 385.46 111.34 384.59 112.87
  Q 380.89 119.31 376.78 124.39
  Q 372.52 127.43 370.10 132.33
  Q 369.65 133.24 365.88 136.95
  Q 362.80 139.99 361.57 141.48
  C 359.42 144.09 357.76 146.70 355.22 148.92
  C 350.18 153.33 346.43 158.68 341.27 162.84
  Q 338.27 165.26 333.61 170.34
  A 10.16 9.77 -85.6 0 1 332.05 171.73
  Q 326.10 175.98 325.20 176.95
  C 320.65 181.92 313.83 185.93 308.29 190.25
  Q 304.35 193.31 300.36 195.61
  Q 291.68 200.60 283.24 205.75
  Q 281.61 206.74 278.73 207.91
  Q 268.74 211.98 267.73 212.44
  Q 244.95 222.86 220.00 221.66
  A 0.21 0.21 0.0 0 1 219.98 221.25
  Q 233.34 219.12 246.10 213.04
  Q 251.14 210.64 255.68 208.69
  A 28.50 28.27 16.7 0 0 259.87 206.46
  C 270.70 199.49 277.12 195.92 283.73 190.08
  C 288.86 185.56 293.89 182.35 298.50 177.35
  Q 300.44 175.24 302.94 173.12
  C 307.36 169.36 310.75 164.99 314.55 161.21
  Q 317.69 158.09 321.54 153.40
  Q 331.26 141.57 331.82 140.85
  C 335.19 136.51 338.37 131.65 341.23 128.24
  Q 345.14 123.59 347.62 119.27
  C 349.99 115.12 353.37 111.37 355.93 107.09
  C 359.35 101.38 362.32 95.44 365.98 90.03
  C 369.67 84.59 371.50 79.17 374.66 74.23
  A 0.49 0.49 0.0 0 0 374.28 73.47
  L 350.68 71.72
  A 0.20 0.20 0.0 0 1 350.57 71.37
  Q 377.57 49.56 377.61 49.56
  Q 377.87 49.57 381.91 45.91
  Q 385.86 42.33 390.05 39.56
  Q 391.39 38.67 396.09 34.20
  C 399.50 30.95 403.77 28.70 406.76 25.76
  Q 411.13 21.48 415.44 18.26
  A 0.59 0.59 0.0 0 1 416.37 18.66
  Q 418.34 35.32 419.41 50.00
  C 420.58 66.04 423.42 87.49 424.83 98.87
  A 0.39 0.39 0.0 0 1 424.20 99.22
  C 418.16 94.29 416.46 92.45 410.92 89.14
  Q 407.96 87.36 405.57 84.71
  A 0.87 0.87 0.0 0 0 404.05 85.20
  L 403.94 86.16
  Z"
/>
<path fill="#0daba2" d="
  M 403.94 86.16
  Q 404.12 88.89 404.13 91.52
  Q 404.20 137.39 404.17 189.48
  Q 404.17 204.31 397.06 222.93
  C 395.74 226.39 395.07 230.08 393.48 232.78
  C 390.60 237.67 388.77 241.55 385.98 244.98
  Q 384.70 246.55 380.85 252.58
  C 378.98 255.52 375.21 258.18 373.17 260.60
  C 370.41 263.87 368.00 266.44 363.82 269.18
  Q 360.94 271.06 358.32 273.02
  C 353.82 276.38 347.64 280.04 341.93 281.99
  Q 338.18 283.28 334.52 284.72
  C 324.53 288.66 311.72 289.54 300.45 289.78
  L 313.21 261.26
  C 325.08 259.78 336.63 256.98 345.92 249.51
  Q 349.31 246.79 351.33 245.26
  Q 355.50 242.09 356.49 240.72
  C 360.35 235.34 363.74 231.65 366.71 226.46
  Q 370.12 220.48 370.70 218.72
  Q 372.19 214.12 374.37 206.92
  Q 376.47 199.97 376.55 190.50
  Q 376.84 157.78 376.78 124.39
  Q 380.89 119.31 384.59 112.87
  Q 385.46 111.34 389.76 106.05
  Q 392.85 102.23 394.69 99.07
  Q 397.25 94.66 399.88 89.43
  Q 400.69 87.83 403.94 86.16
  Z"
/>
<path fill="#23d0c8" d="
  M 215.95 217.78
  Q 203.86 223.81 193.01 232.14
  Q 189.36 225.05 188.17 219.29
  C 186.66 211.99 185.06 205.39 184.25 196.79
  Q 183.89 192.93 183.92 187.20
  Q 184.03 160.01 183.91 115.99
  Q 183.88 107.55 187.98 103.14
  A 4.17 3.90 -83.0 0 1 188.78 102.47
  Q 195.71 98.08 203.58 101.00
  Q 207.55 102.48 209.55 105.59
  Q 212.10 109.56 212.11 112.76
  Q 212.13 175.89 212.16 196.75
  Q 212.18 206.97 215.95 217.78
  Z"
/>
<path fill="#17bbb2" d="
  M 215.95 217.78
  Q 218.01 221.58 220.04 225.53
  Q 229.61 244.18 247.68 253.63
  Q 253.16 256.50 260.70 258.06
  Q 286.65 263.45 313.21 261.26
  L 300.45 289.78
  Q 286.45 290.00 272.49 288.54
  Q 261.63 287.40 253.01 284.68
  C 246.12 282.50 240.54 281.14 235.06 277.93
  C 226.41 272.87 218.92 267.64 211.96 260.10
  Q 204.94 252.49 202.70 249.29
  Q 199.52 244.77 193.01 232.14
  Q 203.86 223.81 215.95 217.78
  Z"
/>
<path fill="#ffffff" d="
  M 68.18 363.64
  C 77.02 363.65 82.23 359.33 85.66 351.39
  Q 86.76 348.82 86.72 342.51
  Q 86.67 335.99 86.75 314.82
  A 0.62 0.62 0.0 0 1 87.37 314.20
  L 99.69 314.20
  A 0.68 0.67 -89.6 0 1 100.36 314.89
  Q 100.28 330.17 100.37 339.33
  Q 100.47 349.90 98.98 354.59
  C 94.73 367.98 82.60 375.49 68.16 375.47
  C 53.71 375.44 41.61 367.88 37.41 354.47
  Q 35.94 349.78 36.08 339.21
  Q 36.21 330.05 36.19 314.77
  A 0.68 0.67 89.8 0 1 36.86 314.08
  L 49.18 314.13
  A 0.62 0.62 0.0 0 1 49.80 314.75
  Q 49.79 335.92 49.72 342.44
  Q 49.65 348.75 50.75 351.32
  C 54.14 359.28 59.34 363.62 68.18 363.64
  Z"
/>
<path fill="#ffffff" d="
  M 263.07 337.21
  A 0.32 0.32 0.0 0 0 262.48 337.23
  Q 257.80 351.15 250.22 367.81
  A 8.21 8.08 64.2 0 0 249.72 369.28
  L 248.77 373.45
  A 1.06 1.04 -83.4 0 1 247.75 374.27
  L 235.65 374.27
  A 0.62 0.62 0.0 0 1 235.08 373.89
  Q 230.43 362.74 225.99 352.90
  Q 225.05 350.83 224.77 349.49
  C 223.78 344.75 220.82 339.60 219.53 336.09
  C 217.68 331.06 213.93 324.78 212.57 318.67
  A 4.94 4.71 -66.3 0 0 212.19 317.62
  L 210.74 314.68
  A 0.36 0.35 -13.0 0 1 211.06 314.17
  L 224.20 314.17
  A 0.88 0.88 0.0 0 1 225.01 314.70
  Q 226.78 318.72 234.23 336.57
  Q 236.29 341.49 237.66 346.27
  Q 239.14 351.44 241.77 355.76
  A 0.38 0.38 0.0 0 0 242.46 355.70
  L 257.35 315.01
  A 1.22 1.22 0.0 0 1 258.50 314.20
  L 267.64 314.20
  A 1.32 1.32 0.0 0 1 268.88 315.06
  L 284.00 355.81
  A 0.45 0.45 0.0 0 0 284.83 355.84
  C 285.90 353.47 286.31 351.04 287.30 348.58
  Q 292.18 336.48 296.48 326.99
  C 298.31 322.96 298.78 318.37 301.08 314.68
  A 1.02 1.01 -73.8 0 1 301.94 314.20
  L 315.37 314.20
  A 0.34 0.33 -79.2 0 1 315.68 314.66
  L 291.12 373.60
  A 1.10 1.09 -78.7 0 1 290.11 374.28
  L 278.19 374.28
  A 0.92 0.90 78.0 0 1 277.36 373.73
  C 274.99 368.28 273.26 362.06 271.18 356.87
  Q 265.37 342.36 263.07 337.21
  Z"
/>
<path fill="#ffffff" d="
  M 127.98 373.63
  L 127.98 314.64
  A 0.46 0.45 90.0 0 1 128.43 314.18
  C 144.26 314.19 155.51 314.27 164.65 314.23
  Q 173.29 314.20 179.76 317.30
  C 187.01 320.76 189.15 327.72 188.90 335.56
  Q 188.48 349.25 174.91 353.41
  Q 172.08 354.28 163.50 354.27
  Q 154.52 354.25 142.29 354.29
  A 0.86 0.86 0.0 0 0 141.43 355.15
  L 141.43 373.63
  A 0.63 0.63 0.0 0 1 140.80 374.26
  L 128.61 374.26
  A 0.63 0.63 0.0 0 1 127.98 373.63
  Z
  M 141.43 326.47
  L 141.37 342.31
  A 0.40 0.40 0.0 0 0 141.77 342.71
  L 166.01 342.80
  A 9.88 7.50 0.2 0 0 175.92 335.33
  L 175.92 333.69
  A 9.88 7.50 0.2 0 0 166.07 326.16
  L 141.83 326.07
  A 0.40 0.40 0.0 0 0 141.43 326.47
  Z"
/>
<path fill="#ffffff" d="
  M 365.27 314.29
  Q 368.49 314.30 371.17 314.24
  A 1.88 1.86 75.5 0 1 372.88 315.26
  Q 379.19 327.38 381.51 331.50
  C 382.72 333.64 383.37 336.32 384.40 338.36
  Q 386.73 342.98 393.42 355.28
  C 394.80 357.82 395.51 360.34 396.28 362.31
  A 8.39 6.99 81.5 0 0 396.80 363.35
  L 402.68 373.80
  A 0.34 0.34 0.0 0 1 402.38 374.30
  L 388.30 374.30
  A 1.00 1.00 0.0 0 1 387.44 373.81
  Q 385.54 370.53 383.83 366.37
  C 381.60 360.93 379.23 356.25 376.32 351.14
  C 372.65 344.67 370.38 338.28 366.42 330.36
  Q 365.78 329.09 365.23 329.09
  Q 364.68 329.09 364.04 330.36
  C 360.04 338.26 357.75 344.64 354.05 351.09
  C 351.11 356.19 348.72 360.85 346.47 366.28
  Q 344.74 370.44 342.82 373.71
  A 1.00 1.00 0.0 0 1 341.96 374.19
  L 327.88 374.13
  A 0.34 0.34 0.0 0 1 327.58 373.63
  L 333.51 363.21
  A 8.39 6.99 -81.2 0 0 334.03 362.17
  C 334.81 360.20 335.54 357.68 336.93 355.15
  Q 343.67 342.88 346.02 338.27
  C 347.06 336.24 347.73 333.56 348.95 331.43
  Q 351.28 327.32 357.65 315.23
  A 1.88 1.86 -75.3 0 1 359.37 314.21
  Q 362.04 314.28 365.27 314.29
  Z"
/>
<path fill="#ffffff" d="
  M 473.87 352.27
  L 488.89 373.86
  A 0.24 0.23 72.4 0 1 488.70 374.23
  L 473.77 374.23
  A 1.12 1.11 -16.7 0 1 472.84 373.73
  L 460.08 354.10
  A 1.25 1.25 0.0 0 0 459.03 353.53
  L 439.25 353.53
  A 0.46 0.46 0.0 0 0 438.79 353.99
  L 438.79 373.65
  A 0.56 0.56 0.0 0 1 438.23 374.21
  L 425.80 374.21
  A 0.43 0.43 0.0 0 1 425.37 373.78
  L 425.37 314.71
  A 0.48 0.48 0.0 0 1 425.85 314.23
  Q 462.34 314.28 465.50 314.32
  Q 469.76 314.38 478.45 317.40
  A 3.24 3.18 77.0 0 1 479.72 318.21
  C 486.75 325.42 489.13 334.85 483.78 343.51
  Q 479.99 349.65 474.06 351.68
  A 0.39 0.39 0.0 0 0 473.87 352.27
  Z
  M 438.78 326.71
  L 438.70 341.21
  A 0.66 0.66 0.0 0 0 439.36 341.87
  L 464.57 342.01
  A 8.09 7.05 0.3 0 0 472.70 335.00
  L 472.70 333.28
  A 8.09 7.05 0.3 0 0 464.65 326.19
  L 439.44 326.05
  A 0.66 0.66 0.0 0 0 438.78 326.71
  Z"
/>
<path fill="#ffffff" d="
  M 511.72 314.55
  A 0.43 0.43 0.0 0 1 512.15 314.12
  L 544.04 314.23
  A 30.16 28.96 0.2 0 1 574.10 343.30
  L 574.10 345.28
  A 30.16 28.96 0.2 0 1 543.84 374.13
  L 511.95 374.02
  A 0.43 0.43 0.0 0 1 511.52 373.59
  L 511.72 314.55
  Z
  M 524.88 326.74
  L 525.00 362.06
  A 0.61 0.61 0.0 0 0 525.61 362.67
  L 543.19 362.61
  A 17.72 17.69 89.8 0 0 560.82 344.83
  L 560.82 343.73
  A 17.72 17.69 89.8 0 0 543.07 326.07
  L 525.49 326.13
  A 0.61 0.61 0.0 0 0 524.88 326.74
  Z"
/>
<path fill="#17bbb2" d="
  M 167.35 396.62
  A 1.18 1.18 0.0 0 1 166.11 398.60
  Q 162.93 397.15 160.63 398.17
  A 1.20 1.19 -50.6 0 0 160.85 400.43
  C 164.28 401.21 168.10 401.47 168.53 404.83
  C 169.38 411.39 161.33 412.09 157.55 408.76
  A 1.24 1.22 10.9 0 1 157.18 408.22
  Q 156.91 407.48 157.67 406.68
  A 0.75 0.75 0.0 0 1 158.50 406.51
  L 162.30 408.09
  A 2.57 2.57 0.0 0 0 165.15 407.49
  L 165.49 407.13
  A 1.75 1.74 -53.4 0 0 165.11 404.52
  C 162.46 402.84 156.17 402.94 157.74 398.11
  C 159.07 393.99 164.61 394.34 167.35 396.62
  Z"
/>
<path fill="#17bbb2" d="
  M 121.39 401.16
  Q 122.95 401.16 124.48 401.15
  A 0.72 0.72 0.0 0 0 125.20 400.42
  L 125.17 396.20
  A 1.27 1.27 0.0 0 1 126.25 394.92
  L 126.27 394.92
  A 1.18 1.18 0.0 0 1 127.54 396.11
  L 127.47 409.95
  A 0.88 0.88 0.0 0 1 126.59 410.83
  L 126.29 410.83
  A 1.01 1.00 -0.3 0 1 125.28 409.84
  L 125.18 404.37
  A 0.69 0.69 0.0 0 0 124.52 403.70
  Q 124.41 403.70 121.39 403.69
  Q 118.37 403.69 118.26 403.69
  A 0.69 0.69 0.0 0 0 117.60 404.36
  L 117.48 409.83
  A 1.01 1.00 0.4 0 1 116.47 410.82
  L 116.17 410.82
  A 0.88 0.88 0.0 0 1 115.29 409.93
  L 115.26 396.09
  A 1.18 1.18 0.0 0 1 116.53 394.91
  L 116.55 394.91
  A 1.27 1.27 0.0 0 1 117.63 396.19
  L 117.59 400.41
  A 0.72 0.72 0.0 0 0 118.30 401.15
  Q 119.83 401.16 121.39 401.16
  Z"
/>
<path fill="#17bbb2" d="
  M 148.38 395.05
  L 149.09 395.05
  A 0.63 0.63 0.0 0 1 149.60 396.04
  L 144.70 402.81
  A 3.84 3.78 63.2 0 0 143.99 405.03
  L 143.99 409.68
  A 1.09 1.09 0.0 0 1 142.90 410.77
  L 142.35 410.77
  A 1.14 1.14 0.0 0 1 141.21 409.63
  L 141.21 404.16
  A 1.31 1.24 -61.8 0 0 141.03 403.50
  L 136.31 395.32
  A 0.20 0.20 0.0 0 1 136.49 395.02
  Q 138.05 395.07 138.97 395.41
  A 1.16 1.16 0.0 0 1 139.66 396.14
  Q 140.62 399.08 141.85 400.66
  A 0.84 0.84 0.0 0 0 143.20 400.64
  L 146.58 395.97
  A 2.22 2.20 17.7 0 1 148.38 395.05
  Z"
/>
<rect fill="#17bbb2" x="-1.38" y="-7.84" transform="translate(178.73,402.89) rotate(0.3)" width="2.76" height="15.68" rx="0.84"/>
<path fill="#17bbb2" d="
  M 197.2130 394.9566
  A 7.95 7.56 -86.3 0 1 204.2442 403.3779
  A 7.95 7.56 -86.3 0 1 196.1870 410.8234
  A 7.95 7.56 -86.3 0 1 189.1558 402.4021
  A 7.95 7.56 -86.3 0 1 197.2130 394.9566
  Z
  M 196.9014 397.6310
  A 5.28 4.86 -88.9 0 0 191.9409 402.8167
  A 5.28 4.86 -88.9 0 0 196.6986 408.1890
  A 5.28 4.86 -88.9 0 0 201.6591 403.0033
  A 5.28 4.86 -88.9 0 0 196.9014 397.6310
  Z"
/>
<path fill="#17bbb2" d="
  M 231.46 395.08
  Q 232.01 395.08 232.50 395.25
  A 1.15 1.14 85.7 0 1 233.13 395.80
  Q 236.79 402.97 238.61 409.88
  A 0.73 0.73 0.0 0 1 237.85 410.80
  L 237.43 410.77
  A 0.82 0.81 82.9 0 1 236.72 410.21
  Q 236.20 408.68 235.43 407.77
  A 1.59 1.57 74.3 0 0 234.51 407.24
  Q 234.43 407.23 231.38 407.21
  Q 228.32 407.19 228.25 407.20
  A 1.59 1.57 -73.5 0 0 227.32 407.72
  Q 226.53 408.61 225.99 410.14
  A 0.82 0.81 -82.2 0 1 225.28 410.69
  L 224.86 410.71
  A 0.73 0.73 0.0 0 1 224.11 409.78
  Q 226.02 402.90 229.78 395.78
  A 1.15 1.14 -84.9 0 1 230.42 395.24
  Q 230.91 395.08 231.46 395.08
  Z
  M 230.75 399.36
  L 228.89 403.83
  A 0.59 0.59 0.0 0 0 229.30 404.63
  Q 231.14 405.05 233.91 404.58
  A 0.52 0.52 0.0 0 0 234.27 403.80
  L 231.67 399.30
  A 0.51 0.51 0.0 0 0 230.75 399.36
  Z"
/>
<path fill="#17bbb2" d="
  M 249.70 400.69
  L 249.70 410.18
  A 0.63 0.63 0.0 0 1 248.89 410.78
  L 248.52 410.67
  A 1.08 1.07 -81.6 0 1 247.76 409.64
  L 247.76 396.02
  A 0.93 0.93 0.0 0 1 249.42 395.43
  L 256.81 404.51
  A 0.47 0.47 0.0 0 0 257.65 404.21
  L 257.65 395.95
  A 0.89 0.89 0.0 0 1 258.54 395.06
  L 259.44 395.06
  A 0.75 0.75 0.0 0 1 260.19 395.81
  L 260.19 410.03
  A 0.63 0.63 0.0 0 1 259.63 410.66
  Q 258.10 410.82 257.10 409.41
  Q 255.42 407.05 250.63 400.39
  A 0.51 0.51 0.0 0 0 249.70 400.69
  Z"
/>
<path fill="#17bbb2" d="
  M 366.72 410.71
  L 365.18 410.71
  A 0.58 0.58 0.0 0 1 364.60 410.13
  L 364.60 395.78
  A 0.58 0.58 0.0 0 1 365.18 395.20
  L 374.28 395.20
  A 0.58 0.58 0.0 0 1 374.86 395.78
  L 374.86 397.37
  A 0.58 0.58 0.0 0 1 374.28 397.95
  L 367.84 397.95
  A 0.58 0.58 0.0 0 0 367.26 398.53
  L 367.26 400.88
  A 0.58 0.58 0.0 0 0 367.84 401.46
  L 373.54 401.46
  A 0.58 0.58 0.0 0 1 374.12 402.04
  L 374.12 403.53
  A 0.58 0.58 0.0 0 1 373.54 404.11
  L 367.88 404.11
  A 0.58 0.58 0.0 0 0 367.30 404.69
  L 367.30 410.13
  A 0.58 0.58 0.0 0 1 366.72 410.71
  Z"
/>
<path fill="#17bbb2" d="
  M 389.9358 394.8354
  A 8.03 7.41 -92.1 0 1 397.6350 402.5885
  A 8.03 7.41 -92.1 0 1 390.5242 410.8846
  A 8.03 7.41 -92.1 0 1 382.8250 403.1315
  A 8.03 7.41 -92.1 0 1 389.9358 394.8354
  Z
  M 391.6568 397.7875
  A 5.26 5.07 -76.4 0 0 385.4922 401.7078
  A 5.26 5.07 -76.4 0 0 389.1832 408.0125
  A 5.26 5.07 -76.4 0 0 395.3478 404.0922
  A 5.26 5.07 -76.4 0 0 391.6568 397.7875
  Z"
/>
<path fill="#17bbb2" d="
  M 439.46 400.02
  L 435.67 405.27
  A 1.05 1.04 47.9 0 1 433.92 405.18
  L 431.08 400.25
  A 0.35 0.35 0.0 0 0 430.42 400.43
  L 430.49 409.60
  A 1.28 1.28 0.0 0 1 429.02 410.87
  L 428.75 410.84
  A 1.11 1.11 0.0 0 1 427.76 409.74
  L 427.76 396.04
  A 0.97 0.96 -90.0 0 1 428.72 395.07
  L 429.94 395.07
  A 1.53 1.53 0.0 0 1 431.43 396.26
  Q 432.14 399.37 434.60 401.35
  A 0.64 0.64 0.0 0 0 435.46 401.28
  Q 437.16 399.46 438.86 396.68
  C 439.86 395.06 440.47 394.90 442.16 395.13
  A 0.65 0.64 -86.5 0 1 442.72 395.77
  L 442.72 409.77
  A 1.01 1.00 0.3 0 1 441.70 410.77
  L 441.35 410.76
  A 1.38 1.38 0.0 0 1 439.99 409.38
  L 439.99 400.19
  A 0.29 0.29 0.0 0 0 439.46 400.02
  Z"
/>
<path fill="#17bbb2" d="
  M 458.16 395.10
  Q 458.88 395.09 459.23 395.28
  A 1.30 1.28 -87.3 0 1 459.90 396.02
  L 460.96 398.91
  A 5.54 4.96 23.4 0 0 461.30 399.65
  Q 463.88 404.18 465.79 409.51
  A 0.92 0.92 0.0 0 1 464.89 410.74
  L 464.73 410.73
  A 2.03 2.03 0.0 0 1 462.91 409.40
  C 462.01 406.94 460.96 407.30 458.32 407.33
  C 455.68 407.37 454.62 407.03 453.78 409.52
  A 2.03 2.03 0.0 0 1 452.00 410.89
  L 451.84 410.91
  A 0.92 0.92 0.0 0 1 450.90 409.70
  Q 452.68 404.32 455.14 399.73
  A 5.54 4.96 -24.9 0 0 455.46 398.98
  L 456.45 396.06
  A 1.30 1.28 85.8 0 1 457.09 395.31
  Q 457.44 395.11 458.16 395.10
  Z
  M 457.74 399.30
  Q 456.40 401.38 455.89 404.05
  A 0.59 0.59 0.0 0 0 456.47 404.76
  L 459.94 404.76
  A 0.50 0.50 0.0 0 0 460.41 404.09
  L 458.66 399.40
  A 0.52 0.52 0.0 0 0 457.74 399.30
  Z"
/>
<path fill="#17bbb2" d="
  M 476.89 401.06
  L 476.89 409.73
  A 1.04 1.03 90.0 0 1 475.86 410.77
  L 475.36 410.77
  A 1.26 1.26 0.0 0 1 474.10 409.51
  L 474.10 396.07
  A 0.80 0.78 77.8 0 1 474.55 395.35
  Q 476.46 394.47 477.74 396.31
  Q 480.81 400.75 483.64 404.87
  A 0.33 0.33 0.0 0 0 484.24 404.69
  L 484.24 395.98
  A 0.95 0.95 0.0 0 1 485.19 395.03
  L 485.77 395.03
  A 1.12 1.12 0.0 0 1 486.89 396.15
  L 486.89 409.70
  A 1.01 1.01 0.0 0 1 485.88 410.71
  C 482.20 410.71 480.94 402.97 477.72 400.64
  A 0.52 0.52 0.0 0 0 476.89 401.06
  Z"
/>
<path fill="#17bbb2" d="
  M 498.52 402.99
  C 498.59 406.00 500.59 407.76 503.52 408.10
  Q 504.40 408.20 506.86 406.75
  A 1.18 1.18 0.0 0 1 508.55 407.34
  L 508.56 407.38
  A 1.76 1.76 0.0 0 1 507.73 409.58
  Q 502.60 412.27 498.47 408.91
  Q 495.67 406.63 495.59 403.06
  Q 495.51 399.49 498.20 397.09
  Q 502.17 393.54 507.42 395.99
  A 1.76 1.76 0.0 0 1 508.35 398.15
  L 508.34 398.19
  A 1.18 1.18 0.0 0 1 506.68 398.86
  Q 504.16 397.53 503.28 397.67
  C 500.37 398.13 498.45 399.99 498.52 402.99
  Z"
/>
<path fill="#17bbb2" d="
  M 528.38 395.71
  L 528.38 397.44
  A 0.46 0.46 0.0 0 1 527.92 397.90
  L 520.37 397.90
  A 0.46 0.46 0.0 0 0 519.91 398.36
  L 519.91 400.62
  A 0.46 0.46 0.0 0 0 520.34 401.08
  L 527.37 401.60
  A 0.46 0.46 0.0 0 1 527.80 402.06
  L 527.80 403.32
  A 0.46 0.46 0.0 0 1 527.34 403.78
  L 520.46 403.78
  A 0.46 0.46 0.0 0 0 520.00 404.24
  L 520.00 407.46
  A 0.46 0.46 0.0 0 0 520.46 407.92
  L 527.91 407.92
  A 0.46 0.46 0.0 0 1 528.37 408.41
  L 528.24 410.14
  A 0.46 0.46 0.0 0 1 527.78 410.57
  L 517.84 410.57
  A 0.46 0.46 0.0 0 1 517.38 410.11
  L 517.38 395.71
  A 0.46 0.46 0.0 0 1 517.84 395.25
  L 527.92 395.25
  A 0.46 0.46 0.0 0 1 528.38 395.71
  Z"
/>
<path fill="#17bbb2" d="
  M 97.43 406.22
  L 97.43 409.68
  A 1.15 1.14 -90.0 0 1 96.29 410.83
  L 95.90 410.83
  A 1.15 1.15 0.0 0 1 94.75 409.68
  L 94.75 395.98
  A 0.64 0.64 0.0 0 1 95.35 395.34
  C 99.56 395.06 105.35 394.18 106.29 399.56
  C 107.21 404.80 102.18 405.66 98.16 405.53
  A 0.70 0.69 1.2 0 0 97.43 406.22
  Z
  M 97.39 398.81
  L 97.39 402.13
  A 0.92 0.92 0.0 0 0 98.31 403.05
  L 101.37 403.05
  A 2.52 2.45 -0.0 0 0 103.89 400.60
  L 103.89 400.34
  A 2.52 2.45 0.0 0 0 101.37 397.89
  L 98.31 397.89
  A 0.92 0.92 0.0 0 0 97.39 398.81
  Z"
/>
<path fill="#17bbb2" d="
  M 269.73 395.83
  A 0.63 0.63 0.0 0 1 270.36 395.20
  L 275.04 395.20
  A 8.01 7.57 -0.0 0 1 283.05 402.77
  L 283.05 403.09
  A 8.01 7.57 0.0 0 1 275.04 410.66
  L 270.36 410.66
  A 0.63 0.63 0.0 0 1 269.73 410.03
  L 269.73 395.83
  Z
  M 272.28 398.37
  L 272.61 407.51
  A 0.44 0.44 0.0 0 0 273.07 407.93
  L 275.21 407.85
  A 5.03 4.81 -2.1 0 0 280.06 402.86
  L 280.05 402.46
  A 5.03 4.81 -2.1 0 0 274.85 397.84
  L 272.70 397.92
  A 0.44 0.44 0.0 0 0 272.28 398.37
  Z"
/>
<path fill="#17bbb2" d="
  M 307.17 405.45
  A 0.70 0.69 0.8 0 0 306.45 406.14
  L 306.47 409.57
  A 1.14 1.13 89.6 0 1 305.35 410.72
  L 304.96 410.72
  A 1.14 1.14 0.0 0 1 303.81 409.59
  L 303.72 396.00
  A 0.64 0.64 0.0 0 1 304.31 395.36
  C 308.49 395.06 314.22 394.15 315.19 399.48
  C 316.14 404.67 311.16 405.55 307.17 405.45
  Z
  M 306.44 398.54
  L 306.53 402.52
  A 0.60 0.60 0.0 0 0 307.14 403.11
  L 309.12 403.06
  A 3.66 2.42 -1.3 0 0 312.72 400.56
  L 312.72 400.22
  A 3.66 2.42 -1.3 0 0 309.00 397.88
  L 307.02 397.93
  A 0.60 0.60 0.0 0 0 306.44 398.54
  Z"
/>
<path fill="#17bbb2" d="
  M 323.85 395.85
  A 0.70 0.70 0.0 0 1 324.55 395.15
  L 333.74 395.21
  A 1.28 1.27 1.2 0 1 335.01 396.53
  L 334.99 396.91
  A 1.02 1.02 0.0 0 1 333.97 397.87
  L 327.23 397.84
  A 0.95 0.94 88.2 0 0 326.29 398.85
  L 326.36 400.15
  A 1.11 1.10 89.0 0 0 327.43 401.19
  L 333.38 401.40
  A 1.03 1.02 87.9 0 1 334.35 402.30
  L 334.39 402.70
  A 0.84 0.83 86.3 0 1 333.60 403.62
  L 327.45 403.83
  A 1.07 1.07 0.0 0 0 326.42 404.90
  L 326.42 406.72
  A 1.13 1.12 -89.8 0 0 327.54 407.86
  L 333.90 407.88
  A 1.06 1.06 0.0 0 1 334.95 409.02
  L 334.93 409.47
  A 1.11 1.10 1.9 0 1 333.84 410.49
  L 324.49 410.58
  A 0.59 0.59 0.0 0 1 323.90 409.99
  L 323.85 395.85
  Z"
/>
<path fill="#17bbb2" d="
  M 352.89 405.52
  L 355.78 409.69
  A 0.67 0.67 0.0 0 1 355.23 410.75
  L 354.58 410.75
  A 2.66 2.65 -17.3 0 1 352.40 409.61
  L 349.71 405.74
  A 1.86 1.86 0.0 0 0 346.32 406.78
  L 346.29 410.01
  A 0.89 0.89 0.0 0 1 345.33 410.89
  L 345.07 410.85
  A 1.13 1.13 0.0 0 1 344.09 409.73
  L 344.09 395.85
  A 0.50 0.50 0.0 0 1 344.56 395.35
  C 346.43 395.22 351.64 394.81 353.61 396.16
  C 356.70 398.28 356.31 402.39 353.11 404.44
  A 0.76 0.76 0.0 0 0 352.89 405.52
  Z
  M 346.38 398.59
  L 346.40 401.81
  A 0.75 0.75 0.0 0 0 347.16 402.56
  L 349.06 402.54
  A 3.89 2.21 -0.4 0 0 352.93 400.31
  L 352.93 400.01
  A 3.89 2.21 -0.4 0 0 349.02 397.82
  L 347.12 397.84
  A 0.75 0.75 0.0 0 0 346.38 398.59
  Z"
/>
<path fill="#17bbb2" d="
  M 415.94 404.35
  A 0.76 0.76 0.0 0 0 415.71 405.42
  L 418.53 409.64
  A 0.67 0.67 0.0 0 1 417.96 410.69
  L 417.31 410.68
  A 2.65 2.65 0.0 0 1 415.15 409.50
  L 412.52 405.59
  A 1.86 1.86 0.0 0 0 409.12 406.57
  L 409.04 409.80
  A 0.89 0.89 0.0 0 1 408.06 410.66
  L 407.80 410.62
  A 1.13 1.13 0.0 0 1 406.84 409.48
  L 407.07 395.61
  A 0.50 0.50 0.0 0 1 407.55 395.12
  C 409.42 395.02 414.64 394.70 416.58 396.08
  C 419.64 398.25 419.18 402.35 415.94 404.35
  Z
  M 408.99 398.59
  L 408.93 401.85
  A 0.74 0.74 0.0 0 0 409.66 402.61
  L 412.08 402.65
  A 3.85 2.22 1.1 0 0 415.98 400.51
  L 415.98 400.21
  A 3.85 2.22 1.1 0 0 412.18 397.91
  L 409.75 397.87
  A 0.74 0.74 0.0 0 0 408.99 398.59
  Z"
/>
<rect fill="#17bbb2" x="36.04" y="401.10" width="40.30" height="3.40" rx="1.04"/>
<rect fill="#17bbb2" x="-16.14" y="-1.61" transform="translate(558.81,402.79) rotate(-0.2)" width="32.28" height="3.22" rx="1.24"/>
</svg>
